<svg xmlns="http://www.w3.org/2000/svg"  viewBox="0 0 48 48" width="24px" height="24px"><path d="M 23.949219 2.0449219 C 14.304342 2.0458997 6.3417969 9.1651386 6.3417969 18.039062 C 6.3417969 19.661963 5.1835386 21.977407 3.8378906 24.455078 C 2.4922427 26.932749 0.97265625 29.589936 0.97265625 32.535156 L 0.97265625 32.638672 L 0.97265625 33.052734 C 0.97265625 38.714064 5.5049074 43.353516 11.0625 43.353516 L 11.083984 43.353516 L 11.105469 43.353516 C 13.304722 43.291799 15.337271 42.565289 16.996094 41.320312 C 18.406405 46.030169 24.001953 45.955078 24.001953 45.955078 C 24.001953 45.955078 29.413475 46.016893 30.927734 41.525391 C 32.610327 42.726303 34.664287 43.353516 36.837891 43.353516 C 42.395483 43.353516 46.929687 38.714064 46.929688 33.052734 L 46.929688 32.638672 L 46.929688 32.535156 C 46.929688 29.589936 45.408148 26.932749 44.0625 24.455078 C 42.716852 21.977407 41.558594 19.661963 41.558594 18.039062 C 41.558594 9.1651382 33.596049 2.0458992 23.951172 2.0449219 L 23.949219 2.0449219 z M 23.949219 5.0449219 L 23.951172 5.0449219 C 25.608931 5.0451171 27.189289 5.2992527 28.664062 5.7460938 C 30.016489 6.627509 31.167066 7.8518328 32.117188 9.2246094 C 34.017429 11.970162 34.992187 15.329631 34.992188 16.978516 L 34.992188 27.480469 C 34.992188 31.578961 33.449077 35.298464 31.279297 37.974609 C 30.868681 33.545719 27.722387 32.392464 26.044922 32.09375 C 25.785922 32.04775 25.520359 32.117156 25.318359 32.285156 C 25.117359 32.454156 25 32.704797 25 32.966797 L 25 33.072266 C 25 33.583266 25.339078 34.030922 25.830078 34.169922 C 27.063078 34.519922 29.234375 35.612703 29.234375 38.970703 C 29.234375 38.970703 29.233625 40.966797 27.140625 40.966797 C 25.047625 40.966797 24.986328 39.892578 24.986328 39.892578 L 24.996094 39.076172 C 25.003094 38.477172 24.630906 37.992188 24.003906 37.992188 C 23.375906 37.992188 23.016766 38.466453 23.009766 39.064453 L 23 39.923828 C 23 39.923828 22.955281 40.966797 20.863281 40.966797 C 18.771281 40.966797 18.769531 38.970703 18.769531 38.970703 C 18.769531 35.606703 20.947734 34.505344 22.177734 34.152344 C 22.664734 34.012344 23.001906 33.567547 23.003906 33.060547 L 23.003906 33.025391 C 23.004906 32.750391 22.882875 32.4885 22.671875 32.3125 C 22.460875 32.1365 22.181156 32.064281 21.910156 32.113281 C 20.219272 32.42309 17.128677 33.590505 16.722656 37.978516 C 14.551471 35.30213 13.007813 31.580641 13.007812 27.480469 L 13.007812 16.978516 C 13.007812 15.206747 13.981671 11.864837 15.878906 9.1484375 C 16.831149 7.7850479 17.986316 6.5757024 19.345703 5.7089844 C 20.788852 5.2833481 22.333085 5.0451123 23.949219 5.0449219 z M 23.980469 5.9589844 A 1.0001 1.0001 0 0 0 23.251953 6.3164062 C 21.621429 8.263287 20.317868 9.2182666 17.691406 10.044922 A 1.0001 1.0001 0 1 0 18.292969 11.951172 C 20.793794 11.16406 22.450059 9.9702978 24.013672 8.3183594 C 25.748445 10.168643 27.514932 11.527204 29.814453 11.986328 A 1.0006904 1.0006904 0 1 0 30.205078 10.023438 C 28.112745 9.6056799 26.625646 8.4652683 24.777344 6.3085938 A 1.0001 1.0001 0 0 0 23.980469 5.9589844 z M 23.980469 11.517578 A 1.0001 1.0001 0 0 0 23.251953 11.873047 C 21.952832 13.42358 20.858214 14.32983 19.144531 15.068359 A 1.0001 1.0001 0 1 0 19.9375 16.904297 C 21.581704 16.19571 22.821379 15.181366 24.009766 13.925781 C 25.217528 15.217758 26.432884 16.285617 27.867188 16.925781 A 1.0001 1.0001 0 1 0 28.681641 15.099609 C 27.336425 14.499207 26.14241 13.457489 24.777344 11.865234 A 1.0001 1.0001 0 0 0 23.980469 11.517578 z M 23.980469 16.498047 A 1.0001 1.0001 0 0 0 23.251953 16.855469 C 22.438664 17.826446 21.69605 18.542369 20.84375 19.125 A 1.0001 1.0001 0 1 0 21.972656 20.775391 C 22.723109 20.262383 23.355723 19.560228 24.005859 18.869141 C 24.670136 19.580881 25.325461 20.303931 26.033203 20.828125 A 1.0001 1.0001 0 1 0 27.222656 19.220703 C 26.424818 18.629779 25.632015 17.844451 24.777344 16.847656 A 1.0001 1.0001 0 0 0 23.980469 16.498047 z M 15.970703 19.972656 A 1.0001 1.0001 0 0 0 15.095703 21.390625 C 16.029782 23.492929 18.314159 25.167323 20.677734 25.972656 A 1.0001 1.0001 0 1 0 21.322266 24.080078 C 19.447841 23.441412 17.481749 21.833821 16.923828 20.578125 A 1.0001 1.0001 0 0 0 15.970703 19.972656 z M 32.017578 19.996094 A 1.0001 1.0001 0 0 0 31.091797 20.597656 C 30.53578 21.828466 28.558117 23.422629 26.669922 24.054688 A 1.0001 1.0001 0 1 0 27.304688 25.951172 C 29.676493 25.15723 31.972081 23.507065 32.914062 21.421875 A 1.0001 1.0001 0 0 0 32.017578 19.996094 z M 30.001953 24.976562 C 28.906953 24.976563 28.009766 25.881328 28.009766 26.986328 C 28.009766 28.091328 28.906953 28.996094 30.001953 28.996094 C 31.096953 28.996094 31.992188 28.092328 31.992188 26.986328 C 31.992188 25.881328 31.096953 24.976562 30.001953 24.976562 z M 17.988281 25.005859 C 16.888281 25.005859 15.988281 25.908719 15.988281 27.011719 C 15.988281 28.114719 16.888281 29.015625 17.988281 29.015625 C 19.088281 29.015625 19.988281 28.114719 19.988281 27.011719 C 19.988281 25.908719 19.088281 25.005859 17.988281 25.005859 z M 24.013672 34.990234 C 22.916672 34.996234 22.109563 35.593719 21.601562 36.136719 C 21.460563 36.287719 21.421906 36.506313 21.503906 36.695312 C 21.585906 36.884313 21.773469 37.007813 21.980469 37.007812 L 26.019531 37 C 26.224531 37 26.408234 36.878406 26.490234 36.691406 C 26.573234 36.504406 26.538391 36.286766 26.400391 36.134766 C 25.904391 35.587766 25.108672 34.985234 24.013672 34.990234 z"/></svg>