<svg xmlns="http://www.w3.org/2000/svg"  viewBox="0 0 32 32" width="24px" height="24px"><path d="M 15.90625 2.90625 L 15.1875 3.8125 C 14.886719 4.210938 8 13 8 30 L 10 30 C 10 24.699219 16.699219 21 18 21 C 19 21 23 24 23 28 L 25 28 C 25 11.800781 16.988281 3.988281 16.6875 3.6875 Z M 16.1875 6.125 C 17.828125 8.203125 21.316406 13.453125 22.59375 21.90625 C 21.09375 20.105469 19.199219 19 18 19 C 16.398438 19 12.8125 20.90625 10.3125 23.90625 C 11.375 14.628906 14.464844 8.746094 15.9375 6.28125 L 15.5 13.6875 L 13 14.3125 L 15.3125 15.09375 L 15.09375 17 L 16.40625 15.3125 L 17.90625 16.90625 L 17.59375 15.09375 L 20 14.3125 L 17.40625 13.6875 Z"/></svg>