<svg xmlns="http://www.w3.org/2000/svg"  viewBox="0 0 64 64" width="24px" height="24px"><path d="M 32 5 C 29.679859 7.3201406 27.033273 11.425426 24.527344 16.714844 C 13.254523 18.876657 5 25.789289 5 34 C 5 39.844859 9.1803112 45.036076 15.654297 48.324219 C 15.247911 51.829733 15 55.398779 15 59 C 22.5 48 33 38 37 38 C 38.764489 38 41.906305 42.163017 44.810547 46.599609 C 41.076372 48.111445 36.670492 49 32 49 C 29.842 49 27.742328 48.807078 25.736328 48.455078 C 25.034328 49.333078 24.375625 50.235531 23.765625 51.144531 C 26.361625 51.697531 29.128 52 32 52 C 37.325013 52 42.2895 50.972055 46.472656 49.197266 C 47.85491 51.412316 49.111574 53.519289 50 55 C 49 33 39 12 32 5 z M 42.212891 17.335938 C 42.856891 18.534938 43.494141 19.801906 44.119141 21.128906 C 51.167141 23.776906 56 28.609 56 34 C 56 37.251 54.240781 40.298109 51.300781 42.787109 C 51.528781 43.896109 51.740687 45.013578 51.929688 46.142578 C 56.320688 42.941578 59 38.68 59 34 C 59 26.469 52.060891 20.020938 42.212891 17.335938 z M 22.996094 20.154297 C 20.042311 27.176992 17.450756 35.806209 16.068359 45.099609 C 11.152984 42.330909 8 38.349056 8 34 C 8 27.848842 14.299583 22.433017 22.996094 20.154297 z"/></svg>