<svg xmlns="http://www.w3.org/2000/svg"  viewBox="0 0 32 32" width="24px" height="24px"><path d="M 15.90625 1.90625 L 15.1875 2.8125 C 15.039063 3.011719 13.28125 5.28125 11.53125 9.59375 C 9.164063 10.183594 7.109375 11.167969 5.59375 12.46875 C 4.023438 13.816406 3 15.554688 3 17.5 C 3 20.417969 5.207031 22.71875 8.21875 24.21875 C 8.097656 25.738281 8 27.320313 8 29 L 10 29 C 10 27.636719 10.441406 26.367188 11.125 25.25 C 12.789063 25.707031 14.558594 26 16.5 26 C 18.734375 26 20.828125 25.695313 22.6875 25.09375 C 22.878906 25.699219 23 26.328125 23 27 L 25 27 C 25 26.019531 24.960938 25.074219 24.90625 24.15625 C 25.222656 23.996094 25.546875 23.832031 25.84375 23.65625 C 28.296875 22.179688 30 20.003906 30 17.5 C 30 15.554688 28.976563 13.816406 27.40625 12.46875 C 25.851563 11.132813 23.726563 10.144531 21.28125 9.5625 C 19.144531 5.117188 16.84375 2.84375 16.6875 2.6875 Z M 16.09375 5 C 17.695313 7 21.292969 12.304688 22.59375 20.90625 C 21.09375 19.105469 19.199219 18 18 18 C 16.398438 18 12.8125 19.90625 10.3125 22.90625 C 11.414063 13.304688 14.695313 7.300781 16.09375 5 Z M 22.28125 11.90625 C 23.84375 12.433594 25.164063 13.144531 26.125 13.96875 C 27.378906 15.046875 28 16.242188 28 17.5 C 28 19.09375 26.882813 20.691406 24.8125 21.9375 C 24.78125 21.957031 24.75 21.980469 24.71875 22 C 24.28125 17.992188 23.351563 14.644531 22.28125 11.90625 Z M 10.625 11.9375 C 10.632813 11.933594 10.648438 11.941406 10.65625 11.9375 C 9.71875 14.699219 8.878906 18.089844 8.40625 22.09375 C 6.226563 20.84375 5 19.214844 5 17.5 C 5 16.242188 5.621094 15.046875 6.875 13.96875 C 7.816406 13.160156 9.101563 12.460938 10.625 11.9375 Z M 18 20 C 18.644531 20 20.550781 21.253906 21.8125 23.21875 C 20.226563 23.703125 18.425781 24 16.5 24 C 15.050781 24 13.707031 23.847656 12.4375 23.5625 C 14.492188 21.339844 17.21875 20 18 20 Z"/></svg>