<svg xmlns="http://www.w3.org/2000/svg"  viewBox="0 0 48 48" width="24px" height="24px"><path d="M 24.154297 2.953125 C 19.25717 2.953125 14.413257 3.6155334 11.033203 6.6992188 C 8.1665741 9.3144969 6.708993 13.532152 7.1894531 19.708984 C 6.6861524 19.277915 6.0113361 18.993268 5.0507812 19.03125 C 2.8131904 19.119149 4.4586429 32.251103 8.3886719 33.445312 C 9.2091186 36.701295 11.1835 39.484776 13.564453 41.572266 C 16.710189 44.330275 20.561331 45.992188 23.980469 45.992188 C 27.413486 45.992188 31.283973 44.283428 34.449219 41.486328 C 36.82696 39.385139 38.807449 36.602165 39.638672 33.363281 C 43.506788 32.006005 45.111877 19.064768 42.890625 18.976562 C 42.10176 18.945369 41.506933 19.133803 41.039062 19.439453 C 41.321029 13.332247 39.870861 9.2025719 37.076172 6.6289062 C 33.765532 3.5800951 29.043163 2.953125 24.154297 2.953125 z M 35.654297 17.314453 C 35.897049 17.336298 36.134927 17.418131 36.345703 17.556641 C 36.7684 17.834916 37.019477 18.299945 37.021484 18.804688 L 37.058594 30.013672 C 37.070804 33.631882 35.14219 36.868881 32.460938 39.238281 C 29.779684 41.607681 26.347452 42.992188 23.980469 42.992188 C 21.599607 42.992188 18.198232 41.644396 15.542969 39.316406 C 12.887705 36.988416 10.978516 33.795705 10.978516 30.169922 L 10.978516 20.289062 C 10.978516 19.459775 11.385939 18.68723 12.072266 18.220703 C 12.758682 17.754115 13.623454 17.660598 14.396484 17.964844 C 21.630566 20.820102 27.492446 20.601724 34.931641 17.429688 C 35.163918 17.330749 35.411545 17.292608 35.654297 17.314453 z M 35.001953 21.001953 C 32.450953 22.474953 30.687812 23.001953 27.007812 23.001953 L 27 26 C 30.678 25.513 32.897953 24.419953 35.001953 21.001953 z M 12.986328 21.005859 C 15.090328 24.423859 17.310281 25.516906 20.988281 26.003906 L 20.980469 23.005859 C 17.300469 23.005859 15.538328 22.478859 12.986328 21.005859 z M 18 26 C 16.9 26 16 26.9 16 28 C 16 29.1 16.9 30 18 30 C 19.1 30 20 29.1 20 28 C 20 26.9 19.1 26 18 26 z M 30 26 C 28.9 26 28 26.9 28 28 C 28 29.1 28.9 30 30 30 C 31.1 30 32 29.1 32 28 C 32 26.9 31.1 26 30 26 z M 21 37 C 20.448 37 20 37.448 20 38 C 20 38.552 20.448 39 21 39 L 27 39 C 27.552 39 28 38.552 28 38 C 28 37.448 27.552 37 27 37 L 21 37 z"/></svg>